<?xml version="1.0" encoding="utf-8"?>
<!-- Generator: Adobe Illustrator 18.1.0, SVG Export Plug-In . SVG Version: 6.00 Build 0)  -->
<!DOCTYPE svg PUBLIC "-//W3C//DTD SVG 1.1//EN" "http://www.w3.org/Graphics/SVG/1.1/DTD/svg11.dtd">
<svg version="1.1" id="Layer_1" xmlns="http://www.w3.org/2000/svg" xmlns:xlink="http://www.w3.org/1999/xlink" x="0px" y="0px"
	 viewBox="0 0 792 612" enable-background="new 0 0 792 612" xml:space="preserve">
<g>
	<path fill="#26476A" stroke="#264769" stroke-width="1.5419" stroke-miterlimit="10" d="M290.8,209.4V208c2-0.1,3.7-0.5,4.9-1
		c1.2-0.5,2.3-1.4,3.3-2.5c1.1-1.3,1.9-2.9,2.3-4.9c0.4-2,0.6-5,0.6-9.2v-44.4c0-4.1-0.2-7.2-0.6-9.2c-0.4-2-1.1-3.6-2.3-4.9
		c-0.9-1.2-2-2-3.3-2.5c-1.3-0.5-2.9-0.8-4.9-1v-1.4h34.5c3.5,0,5.8,0,6.9,0.1c4,0.4,7.3,1.4,9.9,3.3c2.3,1.6,4,3.7,5.3,6.3
		c1.2,2.6,1.9,5.5,1.9,8.8c0,5.3-1.4,9.6-4.3,12.9c-1,1.2-2.2,2.3-3.5,3.1c-1.3,0.8-3.2,1.7-5.6,2.7c3.4,0.6,6,1.3,7.8,2.1
		c1.9,0.8,3.5,1.8,5,3.2c2.2,2.1,4,4.7,5.2,7.8c1.2,3.1,1.9,6.5,1.9,10.1c0,3.7-0.6,7-1.9,10c-1.3,3-3.1,5.5-5.3,7.3
		c-2.1,1.6-4.5,2.8-7.4,3.4c-2.9,0.6-6.9,1-12.1,1H290.8z M313.3,129v35.8h4.3c2,0,4.1-0.2,6.2-0.5c1.9-0.3,3.4-0.7,4.5-1.1
		c1.1-0.4,2.2-1,3.1-1.8c1.8-1.5,3.2-3.5,4.1-5.9c1-2.4,1.4-5,1.4-7.9c0-3.1-0.5-6-1.5-8.7c-1-2.8-2.3-4.9-4-6.4
		c-1.4-1.3-3.1-2.2-4.9-2.7c-1.8-0.5-4.6-0.7-8.4-0.7H313.3z M313.3,166.7v24.8c0,3,0.2,5.4,0.6,7.3c0.4,1.8,1,3.4,1.8,4.7
		c1.8,2.7,4.9,4,9.2,4c5.6,0,10.1-1.8,13.4-5.3c3.3-3.5,4.9-8.4,4.9-14.5c0-3.5-0.5-6.7-1.5-9.7c-1-3-2.4-5.3-4.1-6.9
		c-3.2-3-8.1-4.5-14.8-4.5H313.3z"/>
	<path fill="#26476A" stroke="#264769" stroke-width="1.5419" stroke-miterlimit="10" d="M373.2,176.6c-0.1,2-0.2,3.4-0.2,4.3
		c0,3.5,0.4,6.9,1.3,10.2c0.9,3.3,2.1,6.1,3.6,8.3c1.6,2.2,3.5,4,5.8,5.3c2.3,1.3,4.8,1.9,7.3,1.9c1.9,0,3.7-0.4,5.4-1.1
		c1.7-0.7,3.1-1.7,4.2-3c1.3-1.4,2.3-3.7,3.2-6.7l1.1,0.4c-0.9,4.7-2.9,8.2-5.9,10.6c-3,2.4-7,3.6-12,3.6c-4.3,0-8-0.8-11.1-2.3
		c-3.1-1.6-5.7-4-7.8-7.2c-3-4.5-4.5-10.1-4.5-16.7c0-9,2.8-16.1,8.5-21.3c4.1-3.7,8.8-5.6,14-5.6c2.8,0,5.4,0.6,7.8,1.7
		c2.4,1.1,4.4,2.8,6,5c2.6,3.4,3.8,7.6,3.8,12.6H373.2z M396.1,174.3c-0.2-4-0.9-7.1-1.9-9.3c-0.9-2-2.2-3.5-3.8-4.7
		c-1.6-1.1-3.2-1.7-5-1.7c-3,0-5.6,1.5-7.9,4.5c-2.2,3-3.6,6.7-4,11.2H396.1z"/>
	<path fill="#26476A" stroke="#264769" stroke-width="1.5419" stroke-miterlimit="10" d="M411.1,126.9l15.1-2.2v67.2l0.1,4.6
		c0,2.7,0.1,4.7,0.4,6c0.3,1.3,0.8,2.3,1.6,3.2c1,1.1,2.8,1.9,5.4,2.5v1.3h-23.2v-1.3c2.1-0.3,3.6-0.8,4.5-1.4
		c0.9-0.6,1.6-1.6,2.2-3c0.4-0.9,0.7-2.3,0.8-4.2c0.2-1.9,0.2-4.6,0.2-8.1v-47.2c0-4.1-0.1-7-0.3-8.7c-0.2-1.7-0.6-3-1.2-4.1
		c-0.6-1.1-1.3-1.9-2.2-2.4s-2-0.8-3.6-0.9V126.9z"/>
	<path fill="#26476A" stroke="#264769" stroke-width="1.5419" stroke-miterlimit="10" d="M437.1,126.9l15.1-2.2v67.2l0.1,4.6
		c0,2.7,0.1,4.7,0.4,6c0.3,1.3,0.8,2.3,1.6,3.2c1,1.1,2.8,1.9,5.4,2.5v1.3h-23.2v-1.3c2.1-0.3,3.6-0.8,4.5-1.4
		c0.9-0.6,1.6-1.6,2.2-3c0.4-0.9,0.7-2.3,0.8-4.2c0.2-1.9,0.2-4.6,0.2-8.1v-47.2c0-4.1-0.1-7-0.3-8.7c-0.2-1.7-0.6-3-1.2-4.1
		c-0.6-1.1-1.3-1.9-2.2-2.4s-2-0.8-3.6-0.9V126.9z"/>
	<path fill="#26476A" stroke="#264769" stroke-width="1.5419" stroke-miterlimit="10" d="M460.3,158.2h20.4v1.3
		c-3.9,0.2-5.9,2-5.9,5.2c0,1.6,0.7,4.9,2.1,10l6.4,22.4l9-27.1c0.7-2.1,1.1-3.8,1.1-5.1c0-3.4-1.8-5.3-5.5-5.5v-1.3h20.1v1.3
		c-1.7,0.3-2.9,0.7-3.6,1.3c-1.1,0.9-1.7,2.2-1.7,4c0,1.4,0.3,3.4,1,6l6.9,26.5l8.2-23.8c1-3.1,1.6-5.4,1.6-7c0-2.2-0.7-3.8-2-5
		c-0.7-0.6-1.9-1.2-3.6-1.8v-1.3h15.4v1.3c-1.5,0-2.9,0.6-4,1.7c-0.8,0.7-1.5,1.7-2.2,3.1s-1.5,3.5-2.4,6.2l-1.1,3.1l-12.5,35.8H506
		l-11.5-40.2l-13.8,40.2h-1.8l-10.5-36.5l-1.3-4.4c-1.2-4-2.3-6.5-3.6-7.5c-0.7-0.6-1.8-1.1-3.3-1.5V158.2z"/>
	<path fill="#26476A" stroke="#264769" stroke-width="1.5419" stroke-miterlimit="10" d="M539.8,176.6c-0.1,2-0.2,3.4-0.2,4.3
		c0,3.5,0.4,6.9,1.3,10.2c0.9,3.3,2.1,6.1,3.6,8.3c1.6,2.2,3.5,4,5.8,5.3c2.3,1.3,4.8,1.9,7.3,1.9c1.9,0,3.7-0.4,5.4-1.1
		s3.1-1.7,4.2-3c1.3-1.4,2.3-3.7,3.2-6.7l1.1,0.4c-0.9,4.7-2.9,8.2-5.9,10.6c-3,2.4-7,3.6-12,3.6c-4.3,0-8-0.8-11.1-2.3
		c-3.1-1.6-5.7-4-7.8-7.2c-3-4.5-4.5-10.1-4.5-16.7c0-9,2.8-16.1,8.5-21.3c4.1-3.7,8.8-5.6,14-5.6c2.8,0,5.4,0.6,7.8,1.7
		c2.4,1.1,4.4,2.8,6,5c2.6,3.4,3.8,7.6,3.8,12.6H539.8z M562.7,174.3c-0.2-4-0.9-7.1-1.9-9.3c-0.9-2-2.2-3.5-3.8-4.7
		c-1.6-1.1-3.2-1.7-5-1.7c-3,0-5.6,1.5-7.9,4.5c-2.2,3-3.6,6.7-4,11.2H562.7z"/>
	<path fill="#26476A" stroke="#264769" stroke-width="1.5419" stroke-miterlimit="10" d="M590.7,158.2h13.3v2.3h-13.3v35.1
		c0,4.2,0.6,7.2,1.9,9c0.7,1,1.5,1.8,2.6,2.3c1.1,0.6,2.3,0.8,3.5,0.8c1.6,0,2.9-0.4,3.9-1.1c1-0.7,2.2-2.1,3.5-4.1l0.8,0.8
		c-1.2,2.4-2.8,4.2-4.9,5.4c-2.1,1.2-4.7,1.7-7.8,1.7c-4.1,0-7.1-0.9-9-2.8c-1-1-1.7-2.1-2-3.5c-0.3-1.3-0.5-3.8-0.5-7.3v-36.5h-5.6
		v-1c2.3-0.8,4.4-2.5,6.3-4.9c1.2-1.5,2.1-3,2.8-4.4c0.7-1.5,1.4-3.4,2-5.7l0.5-2h2V158.2z"/>
	<path fill="#26476A" stroke="#264769" stroke-width="1.5419" stroke-miterlimit="10" d="M620.7,124.8V166c1.2-1.7,2.3-3.1,3.3-4
		c0.9-1,2.1-1.8,3.4-2.5c2.6-1.4,5.5-2.2,8.7-2.2c4.1,0,7.5,0.9,10.2,2.8c1.9,1.4,3.2,3.1,4,5.1c0.7,2,1.1,5.1,1.1,9.1v17.6l0.1,4.6
		c0,2.7,0.1,4.7,0.4,6c0.3,1.3,0.8,2.3,1.6,3.2c1,1.1,2.8,1.9,5.4,2.5v1.3h-23.2v-1.3c1.9-0.3,3.2-0.6,4-1c0.8-0.4,1.5-1.1,2.1-2
		c0.6-1,1.1-2.4,1.3-4.1c0.2-1.7,0.4-4.3,0.4-7.6v-19.1c0-2.9-0.2-5.2-0.6-6.9s-1-3.1-1.9-4.4c-1.8-2.4-4.3-3.5-7.5-3.5
		c-8.5,0-12.7,7.7-12.7,23v9.6l0.1,4.5c0,2.7,0.1,4.7,0.4,6c0.3,1.3,0.8,2.3,1.6,3.2c1,1.1,2.8,1.9,5.4,2.5v1.3H605v-1.3
		c2.1-0.3,3.6-0.8,4.5-1.4c0.9-0.6,1.6-1.6,2.2-3c0.4-0.9,0.7-2.3,0.8-4.2c0.2-1.9,0.2-4.6,0.2-8.1v-47.2c0-4.1-0.1-7-0.3-8.7
		c-0.2-1.7-0.6-3-1.2-4.1c-0.6-1.1-1.3-1.9-2.2-2.4s-2-0.8-3.6-0.9v-1.3L620.7,124.8z"/>
	<path fill="#26476A" stroke="#264769" stroke-width="1.5419" stroke-miterlimit="10" d="M672.5,176.6c-0.1,2-0.2,3.4-0.2,4.3
		c0,3.5,0.4,6.9,1.3,10.2c0.9,3.3,2.1,6.1,3.6,8.3c1.6,2.2,3.5,4,5.8,5.3c2.3,1.3,4.8,1.9,7.3,1.9c1.9,0,3.7-0.4,5.4-1.1
		s3.1-1.7,4.2-3c1.3-1.4,2.3-3.7,3.2-6.7l1.1,0.4c-0.9,4.7-2.9,8.2-5.9,10.6c-3,2.4-7,3.6-12,3.6c-4.3,0-8-0.8-11.1-2.3
		c-3.1-1.6-5.7-4-7.8-7.2c-3-4.5-4.5-10.1-4.5-16.7c0-9,2.8-16.1,8.5-21.3c4.1-3.7,8.8-5.6,14-5.6c2.8,0,5.4,0.6,7.8,1.7
		c2.4,1.1,4.4,2.8,6,5c2.6,3.4,3.8,7.6,3.8,12.6H672.5z M695.4,174.3c-0.2-4-0.9-7.1-1.9-9.3c-0.9-2-2.2-3.5-3.8-4.7
		c-1.6-1.1-3.2-1.7-5-1.7c-3,0-5.6,1.5-7.9,4.5c-2.2,3-3.6,6.7-4,11.2H695.4z"/>
	<path fill="#26476A" stroke="#264769" stroke-width="1.5419" stroke-miterlimit="10" d="M724.9,166.5c1.3-2.5,2.7-4.4,4.3-5.7
		c2.9-2.4,6.2-3.6,9.9-3.6c2.3,0,4,0.6,5.2,1.7c1.1,1,1.6,2.3,1.6,3.9c0,1.1-0.3,2-1,2.8c-0.6,0.7-1.5,1.1-2.5,1.1
		c-1.2,0-2.2-0.6-3.1-1.7l-1.6-2c-1.3-1.6-2.8-2.3-4.6-2.3c-2.4,0-4.2,1.8-5.6,5.3c-1.3,3.5-2,8.4-2,14.7v11.2l0.1,4.6
		c0,2.7,0.1,4.7,0.4,6c0.3,1.3,0.8,2.3,1.6,3.2c1,1.1,2.8,1.9,5.4,2.5v1.3h-23.2v-1.3c2.1-0.3,3.6-0.8,4.5-1.3
		c0.9-0.6,1.6-1.6,2.2-3c0.4-0.9,0.7-2.3,0.8-4.2c0.2-1.9,0.2-4.5,0.2-8.1v-14.8c0-4.1-0.1-7-0.3-8.7c-0.2-1.7-0.6-3-1.2-4
		c-0.6-1.1-1.3-1.9-2.2-2.4c-0.8-0.5-2-0.8-3.6-0.9v-1.3l13.5-2.2C724.6,160.9,724.9,164,724.9,166.5z"/>
	<path fill="#26476A" stroke="#264769" stroke-width="1.5419" stroke-miterlimit="10" d="M324.4,242.3v1.4c-2,0.1-3.6,0.4-4.9,1
		c-1.2,0.5-2.4,1.4-3.3,2.5c-1.4,1.6-2.2,3.8-2.5,6.7c-0.2,2.1-0.3,4.6-0.3,7.3v44.4c0,3.3,0.1,6,0.4,7.9c0.3,1.9,0.7,3.5,1.4,4.6
		c0.9,1.6,2.1,2.8,3.5,3.6c1.4,0.8,3.3,1.3,5.7,1.4v1.4h-33.6v-1.4c2-0.1,3.7-0.5,4.9-1c1.2-0.5,2.3-1.4,3.3-2.5
		c1.1-1.3,1.9-2.9,2.3-4.9c0.4-2,0.6-5,0.6-9.2v-44.4c0-4.1-0.2-7.2-0.6-9.2c-0.4-2-1.1-3.6-2.3-4.9c-0.9-1.2-2-2-3.3-2.5
		c-1.3-0.5-2.9-0.8-4.9-1v-1.4H324.4z"/>
	<path fill="#26476A" stroke="#264769" stroke-width="1.5419" stroke-miterlimit="10" d="M343.3,272.4c0.5,2.3,0.7,4.5,0.7,6.5v1
		c4.3-5,9.5-7.5,15.5-7.5c4.5,0,8.1,1.2,10.8,3.6c2.7,2.4,4,5.7,4,10.1v25.5c0,2.7,0.1,4.7,0.4,6c0.3,1.3,0.8,2.3,1.6,3.2
		c1,1.1,2.8,1.9,5.4,2.5v1.3h-23.2v-1.3c2.1-0.3,3.6-0.8,4.5-1.4c0.9-0.6,1.6-1.6,2.2-3c0.4-0.9,0.7-2.3,0.8-4.2
		c0.2-1.9,0.2-4.5,0.2-8v-12.8c0-4.4-0.1-7.6-0.4-9.6c-0.3-2-0.8-3.7-1.5-4.9c-0.8-1.4-2-2.5-3.5-3.3s-3.2-1.2-5-1.2
		c-2,0-3.8,0.4-5.5,1.3c-1.7,0.9-3,2.1-4,3.6c-1,1.6-1.7,3.4-2.1,5.4s-0.5,5.4-0.5,10.1v11.8l0.1,4.5c0,2.7,0.1,4.7,0.4,6
		c0.3,1.3,0.8,2.3,1.6,3.2c1,1.1,2.8,1.9,5.4,2.5v1.3h-23.2v-1.3c2.1-0.3,3.6-0.8,4.5-1.3c0.9-0.6,1.6-1.6,2.2-3
		c0.4-0.9,0.7-2.3,0.8-4.2c0.2-1.9,0.2-4.5,0.2-8.1v-14.8c0-4.1-0.1-7-0.3-8.7c-0.2-1.7-0.6-3-1.2-4c-0.6-1.1-1.3-1.9-2.2-2.4
		c-0.8-0.5-2-0.8-3.6-0.9v-1.3L343.3,272.4z"/>
	<path fill="#26476A" stroke="#264769" stroke-width="1.5419" stroke-miterlimit="10" d="M388,324.5v-17h0.8c1,4.2,2.2,7.5,3.7,10
		c2.7,4.5,5.8,6.8,9.4,6.8c2.2,0,4.1-0.8,5.7-2.3c1.7-1.7,2.6-4.1,2.6-7.2c0-2.5-0.6-4.7-1.9-6.6c-0.7-1-1.6-1.9-2.6-2.8
		s-2.9-2-5.4-3.6c-4.4-2.7-7.3-4.9-8.8-6.7c-2.1-2.6-3.1-5.5-3.1-8.9c0-3.6,1.1-6.7,3.2-9.3c2.4-3,5.6-4.5,9.6-4.5
		c1.8,0,3.4,0.4,5,1.1l1.8,0.9c0.6,0.2,1.1,0.4,1.5,0.4c0.7,0,1.3-0.6,1.9-1.8h1.1l0.6,13.7h-1.1c-0.4-1.9-0.8-3.5-1.2-4.6
		c-0.4-1.2-1.1-2.3-1.9-3.4c-1.1-1.5-2.3-2.7-3.8-3.6c-1.4-0.9-2.8-1.3-4.2-1.3c-2,0-3.6,0.8-5,2.4c-1.4,1.6-2.1,3.6-2.1,6
		c0,2,0.6,3.7,1.9,5.3c1.2,1.6,3.2,3,5.7,4.4l5.6,2.9c3.3,1.7,5.8,3.9,7.4,6.4c1.6,2.6,2.5,5.6,2.5,9.1c0,4.2-1.2,7.7-3.6,10.5
		c-2.7,3.2-6.2,4.8-10.5,4.8c-2.3,0-4.7-0.5-7-1.6c-1.5-0.7-2.5-1.1-2.8-1.2c-0.3-0.1-0.7-0.2-1.2-0.2c-1.2,0-2.2,0.6-2.8,1.8H388z"
		/>
	<path fill="#26476A" stroke="#264769" stroke-width="1.5419" stroke-miterlimit="10" d="M423,274.6l15.1-2.2v34.7l0.1,4.6
		c0,2.7,0.1,4.7,0.4,6c0.3,1.3,0.8,2.3,1.6,3.2c1,1.1,2.8,1.9,5.4,2.5v1.3h-23.2v-1.3c2.1-0.3,3.6-0.8,4.5-1.3
		c0.9-0.6,1.6-1.6,2.2-3c0.4-0.9,0.7-2.3,0.8-4.2c0.2-1.9,0.2-4.5,0.2-8.1v-14.8c0-4.1-0.1-7-0.3-8.7c-0.2-1.7-0.6-3-1.2-4
		c-0.6-1.1-1.3-1.9-2.2-2.4c-0.8-0.5-2-0.8-3.6-0.9V274.6z M433.9,250.8c-1.4,0-2.5-0.5-3.4-1.5c-0.9-1-1.3-2.3-1.3-3.8
		c0-1.5,0.5-2.7,1.4-3.8c0.9-1,2-1.5,3.4-1.5c1.3,0,2.5,0.5,3.4,1.5c0.9,1,1.4,2.3,1.4,3.8c0,1.5-0.4,2.8-1.3,3.8
		C436.4,250.3,435.3,250.8,433.9,250.8z"/>
	<path fill="#26476A" stroke="#264769" stroke-width="1.5419" stroke-miterlimit="10" d="M461.6,329.6l-0.9,0.3
		c-0.6-1.1-1.2-1.9-1.8-2.3s-1.3-0.7-2.2-0.7c-1.5,0-2.7,0.6-3.6,1.9c-0.9,1.3-1.4,3-1.4,5c0,3.3,1.4,5.9,4.3,8
		c2.8,2.1,6.5,3.1,10.9,3.1c4.7,0,8.5-1.2,11.4-3.5c2.9-2.3,4.3-5.3,4.3-9c0-3-1-5.2-2.9-6.8c-1.9-1.6-4.7-2.4-8.2-2.4H463
		c-3.4,0-6.2-0.9-8.3-2.8c-2.2-1.9-3.3-4.2-3.3-6.9c0-2.9,1.2-5.1,3.5-6.8c1.2-0.8,3.4-1.7,6.5-2.6c-3-1.6-5.4-3.7-7.1-6.3
		c-1.7-2.6-2.5-5.5-2.5-8.7c0-4,1.3-7.7,3.9-10.8c1.5-1.9,3.4-3.3,5.5-4.4c2.1-1,4.3-1.6,6.5-1.6c3.4,0,6.8,1.4,10.3,4.1
		c1.6-1.5,3.1-2.5,4.5-3.2c1.3-0.6,2.7-0.9,4.3-0.9c1.7,0,3.1,0.4,4.2,1.3c1.3,1,1.9,2.3,1.9,3.9c0,0.9-0.2,1.7-0.7,2.3
		c-0.5,0.6-1.1,0.9-1.9,0.9c-1.1,0-2.2-0.7-3.1-2l-1.2-1.8c-0.7-1-1.6-1.4-2.8-1.4c-1.3,0-2.7,0.7-4.1,2.2c2.9,4,4.3,8.1,4.3,12.3
		c0,5.3-2,9.4-6.1,12.5c-2,1.5-4.2,2.6-6.6,3.1c-0.7,0.1-2.9,0.3-6.7,0.6c-5.1,0.4-7.7,2-7.7,4.9c0,2.6,2.2,3.9,6.6,3.9h8.7
		c3.1,0,5.6,0.3,7.7,0.9c2.1,0.6,3.9,1.6,5.5,2.9c3.1,2.6,4.6,6.3,4.6,11c0,5.2-1.8,9.3-5.4,12.2c-3.7,3-9.1,4.5-16.2,4.5
		c-7.6,0-13.1-1.8-16.3-5.3c-2-2.3-3.1-5.1-3.1-8.6c0-2.7,0.8-5,2.3-6.8c1.5-1.9,3.3-2.8,5.5-2.8c1.6,0,2.9,0.5,3.9,1.6
		c1,1.1,1.5,2.5,1.5,4.3V329.6z M459.3,289.6c0,4.3,0.8,7.9,2.4,10.6c1.6,2.7,3.6,4.1,6.1,4.1c2.5,0,4.5-1.4,5.9-4.1
		c1.4-2.7,2.1-6.5,2.1-11.3c0-5-0.9-8.9-2.7-11.9c-1.3-2.2-3-3.3-5.1-3.3c-2.5,0-4.5,1.4-6.1,4.3c-0.8,1.4-1.4,3.2-1.8,5.3
		C459.5,285.4,459.3,287.5,459.3,289.6z"/>
	<path fill="#26476A" stroke="#264769" stroke-width="1.5419" stroke-miterlimit="10" d="M508.4,239.9v41.2c1.2-1.7,2.3-3.1,3.3-4
		c0.9-1,2.1-1.8,3.4-2.5c2.6-1.4,5.5-2.2,8.7-2.2c4.1,0,7.5,0.9,10.2,2.8c1.9,1.4,3.2,3.1,4,5.1c0.7,2,1.1,5.1,1.1,9.1v17.6l0.1,4.6
		c0,2.7,0.1,4.7,0.4,6c0.3,1.3,0.8,2.3,1.6,3.2c1,1.1,2.8,1.9,5.4,2.5v1.3h-23.2v-1.3c1.9-0.3,3.2-0.6,4-1c0.8-0.4,1.5-1.1,2.1-2
		c0.6-1,1.1-2.4,1.3-4.1c0.2-1.7,0.4-4.3,0.4-7.6v-19.1c0-2.9-0.2-5.2-0.6-6.9s-1-3.1-1.9-4.4c-1.8-2.4-4.3-3.5-7.5-3.5
		c-8.5,0-12.7,7.7-12.7,23v9.6l0.1,4.5c0,2.7,0.1,4.7,0.4,6c0.3,1.3,0.8,2.3,1.6,3.2c1,1.1,2.8,1.9,5.4,2.5v1.3h-23.2v-1.3
		c2.1-0.3,3.6-0.8,4.5-1.4c0.9-0.6,1.6-1.6,2.2-3c0.4-0.9,0.7-2.3,0.8-4.2c0.2-1.9,0.2-4.6,0.2-8.1v-47.2c0-4.1-0.1-7-0.3-8.7
		c-0.2-1.7-0.6-3-1.2-4.1c-0.6-1.1-1.3-1.9-2.2-2.4s-2-0.8-3.6-0.9V242L508.4,239.9z"/>
	<path fill="#26476A" stroke="#264769" stroke-width="1.5419" stroke-miterlimit="10" d="M562.7,273.3H576v2.3h-13.3v35.1
		c0,4.2,0.6,7.2,1.9,9c0.7,1,1.5,1.8,2.6,2.3c1.1,0.6,2.3,0.8,3.5,0.8c1.6,0,2.9-0.4,3.9-1.1c1-0.7,2.2-2.1,3.5-4.1l0.8,0.8
		c-1.2,2.4-2.8,4.2-4.9,5.4c-2.1,1.2-4.7,1.7-7.8,1.7c-4.1,0-7.1-0.9-9-2.8c-1-1-1.7-2.1-2-3.5c-0.3-1.3-0.5-3.8-0.5-7.3v-36.5h-5.6
		v-1c2.3-0.8,4.4-2.5,6.3-4.9c1.2-1.5,2.1-3,2.8-4.4c0.7-1.5,1.4-3.4,2-5.7l0.5-2h2V273.3z"/>
	<path fill="#26476A" stroke="#264769" stroke-width="1.5419" stroke-miterlimit="10" d="M580.6,324.5v-17h0.8c1,4.2,2.2,7.5,3.7,10
		c2.7,4.5,5.8,6.8,9.4,6.8c2.2,0,4.1-0.8,5.7-2.3c1.7-1.7,2.6-4.1,2.6-7.2c0-2.5-0.6-4.7-1.9-6.6c-0.7-1-1.6-1.9-2.6-2.8
		s-2.9-2-5.4-3.6c-4.4-2.7-7.3-4.9-8.8-6.7c-2.1-2.6-3.1-5.5-3.1-8.9c0-3.6,1.1-6.7,3.2-9.3c2.4-3,5.6-4.5,9.6-4.5
		c1.8,0,3.4,0.4,5,1.1l1.8,0.9c0.6,0.2,1.1,0.4,1.5,0.4c0.7,0,1.3-0.6,1.9-1.8h1.1l0.6,13.7h-1.1c-0.4-1.9-0.8-3.5-1.2-4.6
		c-0.4-1.2-1.1-2.3-1.9-3.4c-1.1-1.5-2.3-2.7-3.8-3.6c-1.4-0.9-2.8-1.3-4.2-1.3c-2,0-3.6,0.8-5,2.4c-1.4,1.6-2.1,3.6-2.1,6
		c0,2,0.6,3.7,1.9,5.3c1.2,1.6,3.2,3,5.7,4.4l5.6,2.9c3.3,1.7,5.8,3.9,7.4,6.4c1.6,2.6,2.5,5.6,2.5,9.1c0,4.2-1.2,7.7-3.6,10.5
		c-2.7,3.2-6.2,4.8-10.5,4.8c-2.3,0-4.7-0.5-7-1.6c-1.5-0.7-2.5-1.1-2.8-1.2c-0.3-0.1-0.7-0.2-1.2-0.2c-1.2,0-2.2,0.6-2.8,1.8H580.6
		z"/>
</g>
<g>
	<g>
		<g>
			<path fill="#711011" d="M218.4,326.1c-4.7,2.1-9.4,4.7-13.4,7.9c-3.9,3.1-7.7,6.5-11,10.2c15.7-5.1,29.9-13.4,42-24.2
				c-1.7,0.8-3.4,1.6-5.2,2.3C226.8,323.8,222.3,324.4,218.4,326.1z"/>
			<g>
				<path fill="#711011" d="M160.5,344.6c0.5-2.7,1.1-5.5,1.4-8.3c0.3-3.3,2.4-5.5,4.4-7.8c5-5.8,10.4-11.4,17.1-15.3
					c5.9-3.5,11.5-7.5,17.5-10.7c5.6-2.9,11.6-4.7,17.4-7.2c7.3-3.1,14-7.1,19.8-12.5c1.3-1.2,2.6-2.4,4.4-4c0.3,3.6,0.6,6.7,1,9.9
					c0.5,4.8,1.1,9.5,1.7,14.3c0.3,2.2,0.5,4.4,0.8,6.5c18.4-21.1,29.6-48.8,29.6-79.3c0-66-52.6-119.4-117.5-119.4
					S40.7,164.5,40.7,230.4s52.6,119.4,117.5,119.4c0.8,0,1.6,0,2.4,0C159.9,348.7,160,347.3,160.5,344.6z"/>
			</g>
			<path fill="#FFFFFF" d="M246.1,309.7c-3.2,3.6-6.6,7.1-10.1,10.3c2.8-1.4,5.7-2.8,8.5-4.1c1.7-0.7,2.2-1.7,2-3.4
				C246.3,311.5,246.2,310.6,246.1,309.7z"/>
			<path fill="#FFFFFF" d="M246.1,309.7c-0.3-2.2-0.5-4.4-0.8-6.5c-0.6-4.8-1.2-9.5-1.7-14.3c-0.4-3.2-0.6-6.3-1-9.9
				c-1.8,1.6-3.1,2.8-4.4,4c-5.8,5.4-12.6,9.4-19.8,12.5c-5.8,2.5-11.9,4.3-17.4,7.2c-6.1,3.1-11.6,7.2-17.5,10.7
				c-6.8,4-12.1,9.5-17.1,15.3c-2,2.3-4,4.5-4.4,7.8c-0.3,2.8-0.8,5.5-1.4,8.3c-0.5,2.7-0.6,4,0.1,5.2c11.6-0.2,22.8-2.2,33.3-5.6
				c3.4-3.7,7.1-7.1,11-10.2c4-3.2,8.7-5.7,13.4-7.9c3.9-1.8,8.4-2.3,12.4-3.9c1.7-0.7,3.5-1.5,5.2-2.3
				C239.5,316.7,242.9,313.3,246.1,309.7z"/>
		</g>
		<path fill="#FFFFFF" d="M166.9,295.9c0.5-3.9,0.9-7,1.2-10.2c0.5-4.5,0.9-9,1.5-13.5c0.2-1.2,1.2-2.3,2-3.4c3.2-4,6.5-8,9.8-12
			c5.8-6.8,12-13,20.5-16.9c7.2-3.3,14.1-7.2,20.8-11.4c4.8-3,9.1-6.8,13.8-10.4c0.2,0.3,0.6,0.6,0.7,1.1c0.2,1.9,0.3,3.8,0.5,5.6
			c0.4,4,1.3,7.9,1.2,11.9c0,2.2-1,4.8-2.5,6.5c-4.1,5-9.6,8.5-15.1,11.8c-6.2,3.8-12.6,7.3-19,10.7c-8.3,4.4-16.6,8.9-23.1,15.8
			c-3.7,4-7.2,8.1-10.9,12.2C168.1,294.4,167.7,294.9,166.9,295.9z"/>
		<path fill="#FFFFFF" d="M220.3,192.5c-0.5,3.8-2.9,6.4-5.7,8.4c-6.9,4.9-14,9.5-20.9,14.4c-2.4,1.6-4.6,3.5-6.7,5.4
			c-3.7,3.3-7.2,6.8-11.3,10.7c0.5-3.3,0.8-6.2,1.3-9.1c1.1-6.8,2.3-13.5,3.3-20.2c0.3-1.6-0.1-3.3,0.1-5c0.1-0.7,0.8-1.7,1.4-1.8
			c3.4-0.8,6.8-1.6,10.3-1.9c7.2-0.7,14.4-1.1,21.6-1.4C215.6,191.8,217.8,192.3,220.3,192.5z"/>
		<path fill="#FFFFFF" d="M180.4,193.7c-2.8-3.1-5.7-6.3-8.8-9.8c2.3-0.6,4.7-1.3,7.1-1.8c7.9-1.6,15.7-3.6,23.9-3.1
			c5.7,0.3,11.4,0.4,17,0.9c5.9,0.5,11.9,1.2,17.7,2c1.7,0.2,3.2,1.3,4.7,1.9c-2.1,3.5-4.1,6.7-6.4,10.5
			C217.4,188.4,198.6,190,180.4,193.7z"/>
		<path fill="#FFFFFF" d="M229.8,164.8c-3.4-0.4-6.8-0.8-10.7-1.3c0.2-1.9,0.5-3.8,0.5-5.8c0.1-4.2,0-8.5,0-12.7
			c0-1.6,0.1-2.5,2.3-1.9c2.2,0.6,4.7,0.6,7,0.6c1.7,0,2.3,0.6,2.2,2.2C230.7,152.1,230.3,158.3,229.8,164.8z"/>
		<path fill="#FFFFFF" d="M179.9,164.8c0-6.9,0-13.3,0-20.3c3.6-0.3,7-0.6,10.7-0.9c0,3-0.1,5.9,0,8.7c0.2,3.1,0.6,6.3,0.9,9.4
			c0.2,1.9-0.4,2.7-2.5,2.7C186,164.3,183,164.6,179.9,164.8z"/>
		<path fill="#FFFFFF" d="M175.8,167.4c0,4.4,0.1,8.4-0.1,12.3c0,0.6-0.7,1.2-1.3,1.6c-0.3,0.3-0.9,0.1-1.4,0.2
			c-3.5,1.5-3.5,1.5-3.6-2.2c-0.1-2.5-0.2-5-0.5-7.5c-0.3-2.9,0-3.3,3-3.8C173.2,167.8,174.3,167.6,175.8,167.4z"/>
		<path fill="#FFFFFF" d="M243.6,182.3c-3.3-0.4-3.8-0.9-3.9-3.7c-0.1-3.3,0-6.7,0-10.4c1.4,0.6,2.4,1,3.3,1.4
			C243.2,174,243.4,178.1,243.6,182.3z"/>
	</g>
	<line fill="#FFFFFF" x1="234.4" y1="149.6" x2="234.2" y2="159.6"/>
	<polygon fill="#711011" points="219.1,163.5 190.6,165.5 190.6,141.6 219.1,140.6 	"/>
</g>
<g>
	<polygon fill="#FFFFFF" points="199.2,150.5 199.3,150.7 199.6,150.7 	"/>
	<polygon fill="#FFFFFF" points="204.9,152.1 204.5,153.6 205.6,152.5 201.3,148.4 200.2,150.9 	"/>
	<path fill="#FFFFFF" d="M200.9,148l-38.5-36.9c-1.5-0.1-3-0.1-4.5-0.1l34.3,32.9L200.9,148z"/>
	<polygon fill="#FFFFFF" points="201.4,148.2 200.9,148 201.3,148.4 	"/>
	<path fill="#FFFFFF" d="M192.7,144l-62.5-29.5c-1.5,0.4-3,0.8-4.5,1.2l73.9,34.9L192.7,144z"/>
	<polygon fill="#FFFFFF" points="199.2,150.5 199.6,150.7 200.2,150.9 201.3,148.4 200.9,148 192.3,143.9 	"/>
	<path fill="#FFFFFF" d="M200.8,152.1l-1.4-1.4l-97.9-25c-1.3,0.7-2.5,1.4-3.7,2.2l94.6,24.2L200.8,152.1z"/>
	<polygon fill="#FFFFFF" points="200.2,150.9 200.1,151 199.6,150.7 199.3,150.7 200.7,152 204.5,152 204.5,153.6 204.9,152.1 	"/>
	<polygon fill="#FFFFFF" points="200.2,150.9 199.6,150.7 200.1,151 	"/>
	<polygon fill="#FFFFFF" points="200.8,154.2 201,155.1 204.5,155.1 204.5,153.6 204.1,155 	"/>
	<path fill="#FFFFFF" d="M197,153.1l-4.5-1.1l-122.6-0.4c-0.9,1-1.7,2-2.5,3l120.9,0.4L197,153.1z"/>
	<polygon fill="#FFFFFF" points="200.7,152 192.3,152 196.8,153.1 200.5,152.4 200.8,154.2 204.1,155 204.5,153.6 203.5,154.6 	"/>
	<polygon fill="#FFFFFF" points="200.7,152 203.5,154.6 204.5,153.6 204.5,152 	"/>
	<path fill="#FFFFFF" d="M201.4,155l-13,0L49.8,184.4c-0.5,1.1-0.9,2.2-1.3,3.4l153-32.6L201.4,155z"/>
	<polygon fill="#FFFFFF" points="196.8,153.1 188,155 201,155.1 200.8,154.2 	"/>
	<polygon fill="#FFFFFF" points="200.5,152.4 196.8,153.1 200.8,154.2 	"/>
	<path fill="#FFFFFF" d="M171.9,173.7L40.8,229c0,0.4,0,0.8,0,1.2c0,0.7,0,1.4,0,2.1L173,176.5L171.9,173.7z"/>
	<path fill="#FFFFFF" d="M174.6,185.3l-124.4,92c0.4,1,0.8,1.9,1.2,2.9l125-92.4L174.6,185.3z"/>
	<path fill="#FFFFFF" d="M207.6,148.9l-18.3-33.6c-1.3-0.4-2.7-0.7-4-1.1l19.7,36.1L207.6,148.9z"/>
	<path fill="#FFFFFF" d="M176.2,143.1c9.4-0.8,19.2-2.1,29-2.2c9.8-0.2,19.6,0.1,30,2.3c-2.7-3-5.2-6.1-7.7-9.1
		c-8.3-6.2-17.4-11.3-27.1-15.1c-3,3.2-6,6.4-9.1,9.5C186.3,133.5,181,138.5,176.2,143.1z"/>
</g>
</svg>
